<svg width="124" height="60" viewBox="0 0 124 60" fill="none" xmlns="http://www.w3.org/2000/svg">
<path d="M49.818 51.6237C49.5295 51.1049 49.1575 50.8392 48.5678 50.8392C47.9478 50.8392 47.267 51.2922 47.267 52.0236C47.267 52.674 47.8642 53.0157 48.3502 53.2131L48.9069 53.4485C50.0154 53.9091 50.8405 54.562 50.8405 55.954C50.8405 57.4674 49.7472 58.5531 48.3502 58.5531C47.0923 58.5531 46.1104 57.5585 45.9434 56.2197L46.9253 55.9995C46.9152 56.9157 47.596 57.5787 48.4337 57.5787C49.2714 57.5787 49.8686 56.8271 49.8686 55.954C49.8686 55.0581 49.198 54.6734 48.5273 54.3747L47.9908 54.1318C47.1025 53.7243 46.2926 53.1827 46.2926 52.0236C46.2926 50.6747 47.4112 49.8674 48.5881 49.8674C49.4561 49.8674 50.1698 50.3204 50.5925 51.1277L49.818 51.6237Z" fill="#F9F9F9"/>
<path d="M54.0039 58.3744H53.0321V50.9946H51.1846V50.043H55.8539V50.9946H54.0039V58.3744Z" fill="#F9F9F9"/>
<path d="M57.4558 50.0442V54.959C57.4558 56.3206 57.838 57.5784 59.3362 57.5784C60.8345 57.5784 61.2166 56.3206 61.2166 54.959V50.0442H62.1884V55.3133C62.1884 57.1481 61.123 58.5527 59.3362 58.5527C57.5495 58.5527 56.484 57.1481 56.484 55.3133V50.0442H57.4558Z" fill="#F9F9F9"/>
<path d="M64.422 57.4245H64.7637C66.7453 57.4245 68.4612 56.6298 68.4612 54.2104C68.4612 51.7782 66.7453 50.9937 64.7637 50.9937H64.422V57.4245ZM63.4502 50.0446H65.0623C67.4514 50.0446 69.433 51.391 69.433 54.1648C69.433 57.0044 67.4894 58.3735 65.0294 58.3735H63.4502V50.0446Z" fill="#F9F9F9"/>
<path d="M71.3473 58.3757H70.3754V50.0443H71.3473V58.3757Z" fill="#F9F9F9"/>
<path d="M79.4465 54.209C79.4465 52.3741 78.1659 50.8379 76.3361 50.8379C74.5089 50.8379 73.2283 52.3741 73.2283 54.209C73.2283 56.1096 74.6531 57.58 76.3361 57.58C78.0217 57.58 79.4465 56.1096 79.4465 54.209ZM80.4183 54.209C80.4183 56.6841 78.5911 58.5493 76.3361 58.5493C74.0837 58.5493 72.2565 56.6841 72.2565 54.209C72.2565 51.8224 74.1065 49.8686 76.3361 49.8686C78.5683 49.8686 80.4183 51.8224 80.4183 54.209" fill="#F9F9F9"/>
<path d="M91.4443 54.1762V54.5078C91.4443 56.7956 89.9359 58.552 87.7569 58.552C85.5754 58.552 83.819 56.54 83.819 54.2319C83.819 51.8352 85.6184 49.8663 87.8581 49.8663C89.0679 49.8663 90.2675 50.4509 91.0318 51.4809L90.351 52.1769C89.7917 51.3594 88.8502 50.8179 87.9012 50.8179C86.1549 50.8179 84.7908 52.3313 84.7908 54.1965C84.7908 55.9453 86.1347 57.6004 87.8176 57.6004C89.0274 57.6004 90.3282 56.4869 90.3687 55.1253H88.3542V54.1762H91.4443Z" fill="#F9F9F9"/>
<path d="M97.0048 53.4024V50.044H97.9766V58.3729H97.0048V54.3768H93.2971V58.3729H92.3253V50.044H93.2971V53.4024H97.0048Z" fill="#F9F9F9"/>
<path d="M100.325 58.3757H99.3531V50.0443H100.325V58.3757Z" fill="#F9F9F9"/>
<path d="M102.669 57.4462H103.413C104.311 57.4462 105.25 57.1602 105.25 55.9758C105.25 54.8066 104.137 54.5611 103.269 54.5611H102.669V57.4462ZM102.669 53.736H102.917C103.838 53.736 104.59 53.5361 104.59 52.3416C104.59 51.1698 103.846 50.9724 102.937 50.9724H102.669V53.736ZM101.697 50.0436H102.649C104.114 50.0436 105.498 50.451 105.498 52.3314C105.498 52.9363 105.19 53.6449 104.661 53.9107V53.9309C105.582 54.1106 106.222 55.0698 106.222 56.0416C106.222 57.7119 104.891 58.375 103.517 58.375H101.697V50.0436Z" fill="#F9F9F9"/>
<path d="M108.281 57.4245H110.647V58.3735H107.309V50.0446H108.281V57.4245Z" fill="#F9F9F9"/>
<path d="M112.225 58.3757H111.253V50.0443H112.225V58.3757Z" fill="#F9F9F9"/>
<path d="M35.222 44.4925C37.6162 43.5535 40.2963 40.9923 41.4782 37.5353H35.8396V36.2724H43.1258C42.984 36.9203 42.5842 38.8336 41.0429 41.0835C41.6832 41.6301 43.2675 43.0069 44.71 44.5254L43.6876 45.6288C43.2447 45.072 42.4551 44.085 40.3064 42.0806C39.5497 43.0069 38.0414 44.6797 35.9712 45.5807L35.222 44.4925Z" fill="#F9F9F9"/>
<path d="M48.4707 39.7267C48.9364 39.9367 49.8475 40.3543 50.9863 41.3717C51.9404 40.0633 52.1885 38.8207 52.2872 38.3474H48.4935C47.4179 39.9367 46.4967 40.6201 45.6412 41.1515L44.8289 40.1772C46.7244 39.1218 47.7114 37.7223 48.458 35.6445L49.7715 35.9102C49.564 36.3987 49.4349 36.6998 49.197 37.1427H53.8158C53.5323 38.9599 52.601 44.2821 46.2056 45.874L45.5122 44.725C46.2461 44.596 48.0911 44.272 50.1183 42.3587C49.0351 41.3388 48.048 40.8402 47.6229 40.6201L48.4707 39.7267Z" fill="#F9F9F9"/>
<path d="M54.6427 44.1096C58.7299 43.7503 60.585 42.4267 61.9921 37.8029L63.1664 38.3596C61.691 42.7531 59.8587 44.9094 54.9464 45.5016L54.6427 44.1096ZM62.7843 37.1651C62.5362 36.1199 62.3287 35.6466 62.2199 35.391L63.1006 35.181C63.4043 35.8516 63.6093 36.6185 63.6852 36.8968L62.7843 37.1651ZM61.2025 37.4081C61.0507 36.6185 60.9115 36.1553 60.6913 35.5403L61.5821 35.3328C61.8529 36.0288 61.9516 36.3299 62.1338 37.1752L61.2025 37.4081ZM57.0722 41.2473C55.8144 40.5134 54.5566 40.0755 54.0251 39.9009L54.5212 38.6962C54.9261 38.8203 56.5408 39.334 57.5708 39.9363L57.0722 41.2473ZM57.9074 38.5571C56.8318 37.975 55.8144 37.5827 54.8806 37.2916L55.4019 36.0743C57.0368 36.5957 57.8517 36.9905 58.4591 37.2916L57.9074 38.5571Z" fill="#F9F9F9"/>
<path d="M74.5184 44.1096C78.6056 43.7503 80.4607 42.4267 81.8679 37.8029L83.0422 38.3596C81.5667 42.7531 79.7344 44.9094 74.8221 45.5016L74.5184 44.1096ZM82.66 37.1651C82.412 36.1199 82.2045 35.6466 82.0956 35.391L82.9764 35.181C83.28 35.8516 83.485 36.6185 83.561 36.8968L82.66 37.1651ZM81.0782 37.4081C80.9264 36.6185 80.7872 36.1553 80.567 35.5403L81.4579 35.3328C81.7287 36.0288 81.8274 36.3299 82.0096 37.1752L81.0782 37.4081ZM76.948 41.2473C75.6902 40.5134 74.4323 40.0755 73.9009 39.9009L74.3969 38.6962C74.8018 38.8203 76.4165 39.334 77.4465 39.9363L76.948 41.2473ZM77.7831 38.5571C76.7101 37.975 75.6902 37.5827 74.7563 37.2916L75.2776 36.0743C76.9151 36.5957 77.7275 36.9905 78.3349 37.2916L77.7831 38.5571Z" fill="#F9F9F9"/>
<path d="M92.887 36.8512C92.8111 36.3855 92.6036 35.6086 92.4214 35.1682L93.3097 34.9961C93.5147 35.5656 93.6134 35.9123 93.7652 36.631L92.887 36.8512ZM91.7482 35.0872C91.9456 35.5757 92.0519 35.9705 92.2037 36.7019L91.8772 36.7474V36.7702H92.5276C92.3454 41.8141 89.9715 44.6765 85.9045 45.6078L85.2212 44.3652C86.9675 44.0058 90.5562 43.239 91.1408 38.023H84.2772V36.7702H91.2268C91.1306 36.1907 91.0319 35.8439 90.8168 35.2492L91.7482 35.0872V35.0872Z" fill="#F9F9F9"/>
<path d="M101.616 40.3298C101.616 42.152 101.302 43.5768 100.041 44.5967C99.0569 45.399 98.0471 45.604 95.8579 45.8596L95.4581 44.5841C98.2344 44.3993 100.337 43.9362 100.337 40.9448V35.9237H101.616V40.3298ZM96.1414 42.4304H94.8861V36.1337H96.1414V42.4304V42.4304Z" fill="#F9F9F9"/>
<path d="M108.597 35.3671C108.511 35.7492 108.412 36.1668 108.152 36.84H112.826V37.9865H109.225V39.634H112.555V40.7805H109.225V42.4407H112.555V43.577H109.225V46.1761H108.056V37.9865H107.643C106.917 39.4138 106.332 40.0744 105.995 40.4692L105.256 39.4822C106.441 38.2547 107.134 36.4123 107.395 35.2279L108.597 35.3671ZM103.925 40.087H103.903C103.536 40.5982 103.239 40.8868 102.948 41.1651L102.45 40.0187C103.652 38.8115 104.378 37.4904 104.857 35.238L106.006 35.4481C105.854 36.0048 105.606 36.9691 105.072 38.1155V46.1761H103.925V40.087V40.087Z" fill="#F9F9F9"/>
<path d="M115.915 38.6481H121.207V36.6766H115.915V38.6481ZM114.844 35.5883H122.26V39.7414H114.844V35.5883ZM119.914 44.4942H122.222V41.7458H119.914V44.4942ZM113.809 40.6778H118.025V46.0482H116.985V45.5724H114.844V46.1292H113.809V40.6778V40.6778ZM114.844 44.4942H116.993V41.7458H114.844V44.4942ZM118.866 40.6778H123.267V46.1292H122.227V45.5724H119.914V46.1292H118.866V40.6778V40.6778Z" fill="#F9F9F9"/>
<path d="M64.1896 43.7808C67.4669 41.3993 68.5729 39.2456 68.745 38.8787L64.1313 38.8736V37.5981H69.4916V35.6569H70.6988V37.5981H73.1562V38.904H70.7089L70.7114 45.6967H69.4916L69.4941 39.9214C69.4941 39.9214 68.5147 42.2877 64.9007 44.8817L64.1896 43.7808Z" fill="#F9F9F9"/>
<path d="M34.8676 47.7064H124V47.8531H34.8676" fill="#F9F9F9"/>
<path d="M35.8466 17.6284V17.7473L35.6543 17.8131L35.1279 17.8005L34.6014 17.8232L34.5736 17.7701L34.8166 17.6182C35.1683 17.684 35.4746 17.5094 35.796 17.598L35.8466 17.6284Z" fill="#F9F9F9"/>
<path d="M23.1864 29.3725L23.0953 29.4813L22.9232 29.7091L22.8017 29.8483L22.4373 30.1419L22.0653 30.3873C21.8223 30.605 21.4882 30.7695 21.0934 30.8328L20.6176 30.8859C20.3443 30.8555 20.0432 30.8555 19.8204 30.7341L19.5775 30.6581C19.2561 30.4911 19.1321 30.3696 19.0106 30.0204L19.0005 29.9343H18.9802L18.96 29.6635L18.9296 29.5876L18.879 28.9954V28.9068H18.8891L18.8992 28.4741L18.9372 28.388L18.9802 28.302H19.0005L19.0106 28.1628H19.0182L19.0511 28.0514V27.6541L19.0916 27.5781L19.1093 27.4794L19.1321 27.3073H19.1523L19.1624 27.2086H19.1726L19.2029 27.1125V27.0467H19.2232L19.2434 26.9303H19.2611L19.4459 26.5835L19.5572 26.4418C19.8002 26.2925 20.0103 26.0723 20.3949 26.0521L20.8404 25.9002C21.0833 25.9129 21.306 25.9761 21.549 26.0217L22.0551 26.2672L22.3563 26.5937H22.3766L22.3993 26.6595H22.4171L22.5082 26.8316C22.9055 27.606 23.0827 28.097 23.156 28.9954L23.1662 29.0916H23.1864V29.3725ZM23.9533 29.3927L23.6825 29.2434L23.6015 29.1776L23.5407 29.1219L23.5002 28.9498H23.4775L23.4496 28.4741H23.4395L23.4193 28.3475L23.3863 28.1501L23.3484 27.8363H23.3281L23.2978 27.6844H23.2876L23.2472 27.5554L23.2067 27.4035L23.1257 27.1656H23.1054L23.0573 27.0366C22.6752 26.1027 22.4626 25.8952 21.4882 25.6547L21.1845 25.556C20.8606 25.5434 20.5063 25.556 20.2152 25.6649C19.9824 25.6395 19.8584 25.7711 19.699 25.8572L19.3042 26.1381L19.1903 26.3127L19.1624 26.3988L19.041 26.5608L18.9802 26.6367L18.9498 26.7556H18.9372L18.8891 26.8518V26.8847L18.8587 26.9935H18.8486L18.8182 27.1555H18.798V27.2086L18.7777 27.4035H18.7575L18.7373 27.6541H18.717L18.6866 27.7933H18.6765L18.6461 27.9755H18.636L18.6259 28.1071H18.6057V28.2159H18.5854L18.6057 28.3981L18.4032 28.7347H18.3931L18.4032 28.8435L18.4133 28.8739L18.6057 29.1219H18.5854V29.2004L18.5753 29.4687L18.6057 29.6332L18.636 29.8053L18.6461 29.8584H18.6664L18.6765 29.9571L18.717 30.0862L18.7575 30.1722L18.9195 30.4126L19.2611 30.7341L19.5851 30.9947C19.9191 31.0808 20.233 31.2858 20.6379 31.1896C20.8707 31.1567 21.1643 31.1668 21.3161 31.015L21.5996 30.9618L21.8223 30.8986L22.2956 30.648L22.6296 30.3975C22.8625 30.2709 22.9738 30.0558 23.1662 29.9014L23.3484 29.6737L23.4193 29.6104L23.8343 29.5572L23.9533 29.3927" fill="#F9F9F9"/>
<path d="M14.804 26.4312L14.8343 26.4413H14.8242V26.4615H14.8141L14.7432 26.7323H14.723L14.6926 26.8968H14.6825L14.6521 27.0993H14.642L14.6217 27.2208L14.5914 27.4055H14.5711V27.5017H14.5509L14.48 27.6434L14.3585 27.5675L14.351 27.4815H14.3687L14.3889 27.1778H14.4092L14.4395 27.0386H14.4497L14.4598 26.9171H14.48L14.5003 26.7577H14.5205L14.5711 26.5932L14.5914 26.5273L14.6319 26.4615V26.4211L14.6521 26.4008L14.7432 26.335L14.804 26.4312Z" fill="#F9F9F9"/>
<path d="M15.0467 27.1232L15.0568 27.1687L15.077 27.275H15.0568L15.0264 27.4496L14.8543 27.5002L14.8138 27.275L14.8543 27.1788L15.0467 27.1232Z" fill="#F9F9F9"/>
<path d="M15.4211 27.3506L15.4616 27.4164V27.5885L15.3907 27.6517L15.2288 27.5024L15.2389 27.4062L15.2693 27.3809L15.4211 27.3506Z" fill="#F9F9F9"/>
<path d="M15.987 27.6643L16.0072 27.7832L15.9465 27.8591L15.7769 27.7933L15.7339 27.6845L15.744 27.5681H15.8959L15.987 27.6643Z" fill="#F9F9F9"/>
<path d="M20.062 28.6046L20.0012 28.5287L19.981 28.3667L20.0518 28.3338L20.0822 28.3667L20.0923 28.4199L20.062 28.6046ZM20.3049 28.3237L20.2619 28.0959H20.2442L20.2239 27.8479L20.1632 27.729L20.0012 27.5645C19.6773 27.4582 19.5761 27.7391 19.4369 27.8909L19.3736 27.977L19.3432 28.0858H19.3331V28.1516L19.3027 28.2478H19.285L19.2648 28.6907L19.3027 29.0905L19.3331 29.1462L19.5558 29.5031L19.981 29.4803L20.1025 29.4044L20.2442 29.1462H20.2619L20.2847 29.0273C20.2619 28.7666 20.3353 28.5742 20.3049 28.3237" fill="#F9F9F9"/>
<path d="M11.5479 30.2917L11.5884 30.3575L11.6668 30.4765L11.6896 30.5929L11.5681 30.7346L10.9911 30.8865L10.6697 30.7245L10.7076 30.6385H10.7178L10.7507 30.5069H10.7709L10.7886 30.3879L10.9 30.2462L11.3758 30.15L11.5479 30.2917Z" fill="#F9F9F9"/>
<path d="M22.0537 34.12C21.6387 34.1301 21.2464 34.12 20.8415 34.12L20.4163 34.0668L20.3353 33.9909L20.4036 33.958L21.3147 34.0542C21.5678 33.9783 21.8108 34.0896 22.0537 34.0997V34.12ZM30.7192 35.1601C30.3472 35.0285 29.9119 35.0285 29.555 34.8893C29.2134 34.8539 28.897 34.7476 28.525 34.778L28.1631 34.7046L27.8189 34.6388C27.5557 34.5857 27.2722 34.573 26.9888 34.5528C26.7458 34.4211 26.4016 34.5072 26.1789 34.3807C25.774 34.3579 25.4627 34.1655 25.0578 34.2162C24.7718 34.206 24.5415 34.0997 24.2378 34.1301C23.9468 34.0441 23.5899 34.0896 23.2989 34.0339L22.7497 33.9909C22.3675 33.9479 21.9626 33.9049 21.5678 33.9479C21.2236 33.8821 20.8617 33.8289 20.4745 33.8391L19.981 33.7631L19.8899 33.958H19.8696L19.8798 34.0668L20.1227 34.3478C20.4264 34.4313 20.7807 34.5528 21.1224 34.4566C21.3957 34.4667 21.6589 34.5072 21.9221 34.4768C22.1752 34.5199 22.4384 34.4667 22.6814 34.5325L23.1749 34.573C23.4988 34.5958 23.8126 34.5629 24.1264 34.616C24.3694 34.5528 24.5719 34.6717 24.8148 34.6818L25.6829 34.7476C25.979 34.8438 26.3308 34.7906 26.6244 34.8666C26.8977 34.8767 27.171 34.8767 27.4241 34.9425L27.991 34.9956L28.4642 35.0943L28.8894 35.1601C29.1931 35.2664 29.555 35.2563 29.8613 35.3651L30.3851 35.4714L30.8204 35.4158L30.8407 35.3854L30.7192 35.1601" fill="#F9F9F9"/>
<path d="M18.4344 35.4069C18.7381 35.503 19.1203 35.4271 19.4265 35.5688L19.8593 35.6675L20.1326 35.7637C20.3857 35.7637 20.6387 35.8497 20.8994 35.8599L21.1145 36.1003V36.2294C20.7299 36.2066 20.4084 36.0547 20.0314 36.0143L19.5454 35.9029C18.9684 35.8826 18.485 35.5688 17.8878 35.6979L17.5334 35.4727L17.4955 35.3411L17.8776 35.3613L18.4344 35.4069Z" fill="#F9F9F9"/>
<path d="M30.2749 38.3159C30.0117 38.4247 29.7308 38.3057 29.4777 38.2728C29.1108 38.121 28.678 38.0248 28.3034 37.8831V37.873L27.7897 37.7869C27.524 37.6882 27.2329 37.6477 26.9368 37.6022L26.4737 37.4605C26.0586 37.2757 25.5423 37.1264 25.1096 36.9745C24.6819 36.9087 24.3199 36.7493 23.9353 36.6278L23.5303 36.4456L23.5405 36.4127C23.7733 36.3899 23.9555 36.4886 24.158 36.5215C24.4516 36.6734 24.8438 36.7139 25.1678 36.8126L25.5018 36.8556C25.7954 36.9442 26.1396 36.9745 26.4028 37.1163C26.6559 37.1795 26.8457 37.3415 27.1317 37.3643C27.4759 37.4934 27.8681 37.5693 28.2123 37.6882L28.8501 37.8173C29.0829 37.8831 29.3436 37.9033 29.5587 38.002L29.8928 38.1008L30.2851 38.2602H30.2952L30.2749 38.3159ZM30.8418 38.2956L30.69 38.121L30.3458 37.873C30.1231 37.8831 30.0016 37.7313 29.7789 37.754C29.5967 37.668 29.4448 37.5465 29.1918 37.5592C28.7969 37.4174 28.3237 37.3516 27.8884 37.2656L27.4227 37.0606L26.909 36.8986L26.5344 36.7493L26.0485 36.6076C25.4816 36.4228 24.8767 36.357 24.2896 36.1951C24.0365 36.1217 23.7227 36.1419 23.5 36.0255C22.5205 35.8736 21.6196 35.5927 20.6705 35.3953C20.4655 35.2662 20.1416 35.2865 19.9012 35.1903L19.6683 35.1473C19.4355 35.0942 19.1622 35.0815 18.9395 35.0056L18.6965 34.9651L18.1701 34.8006C17.9195 34.6487 17.5753 34.7803 17.3602 34.8765L17.3223 34.9296L17.3526 35.0942L17.6234 34.9853L18.0182 35.0942C18.3726 35.1372 18.6864 35.2359 19.0103 35.332L19.152 35.3852L19.4962 35.5143C19.7974 35.5472 20.1036 35.5143 20.3542 35.6332C20.6705 35.6788 20.9312 35.8281 21.2653 35.7522L21.3766 35.8281C21.5993 35.8382 21.7714 35.9597 21.9435 36.0356L21.7512 36.1318L21.5993 36.3165L21.6297 36.3368C21.9005 36.4329 22.1865 36.476 22.4674 36.5747C22.8116 36.6278 23.1052 36.8024 23.4696 36.8227C24.0163 37.0074 24.5705 37.1365 25.1096 37.3213C25.3702 37.4073 25.7043 37.4503 25.9473 37.5693L26.1598 37.6477C26.4306 37.6882 26.6154 37.8502 26.8988 37.8629C27.2 37.9489 27.5037 38.0248 27.7998 38.121L28.4249 38.2855C28.8197 38.3817 29.2449 38.4576 29.6169 38.5867C29.8801 38.6069 30.113 38.5765 30.3458 38.6525L30.8418 38.4576V38.2956" fill="#F9F9F9"/>
<path d="M11.0524 36.8341L11.0827 36.943L11.0119 37.0062L10.4753 36.9632L10.4652 36.8341L10.5259 36.7481L10.9309 36.7025L11.0524 36.8341Z" fill="#F9F9F9"/>
<path d="M25.8054 40.814L25.7446 40.7938L25.1575 40.5331L24.6311 40.2623L24.1173 39.9915L23.5403 39.7891C23.2771 39.6676 22.9633 39.6018 22.7102 39.4626C22.447 39.3867 22.204 39.3006 22.0041 39.1361L21.5789 38.9969C21.3664 38.9109 21.2044 38.7691 20.9715 38.716L20.6577 38.6072L20.0832 38.3263L19.8302 38.1516L19.901 38.0656C20.2452 38.101 20.478 38.3161 20.8298 38.3592L20.9614 38.4022C21.2651 38.5338 21.6093 38.6072 21.8801 38.7793C22.1155 38.8552 22.366 38.9539 22.5685 39.0501L23.0544 39.3006L23.348 39.4626C23.5909 39.5588 23.8643 39.6777 24.0642 39.8194L24.5121 40.0143L24.8032 40.1307L25.4106 40.4673L25.8054 40.7584V40.814ZM27.1088 41.3759L26.8076 41.1405L26.4912 40.8444L25.856 40.4015C25.5827 40.1662 25.1803 40.0573 24.8943 39.8194L24.4995 39.6144L24.3274 39.5385L24.1275 39.417C23.8946 39.4069 23.8035 39.2348 23.6112 39.1918L23.1961 39.0096L22.6495 38.7894L22.1762 38.6072L21.7814 38.4477C21.5562 38.2934 21.2651 38.2174 21.0019 38.1111C20.7412 38.0782 20.516 37.9593 20.273 37.9061L20.2452 37.8707L19.6378 37.8505L19.5239 37.9795L19.4961 38.101H19.486L19.5467 38.3161L19.8504 38.5869C20.2351 38.7287 20.597 38.9311 20.9842 39.0602L21.5283 39.288C21.7308 39.4525 22.0623 39.4727 22.2952 39.5917C22.5002 39.7891 22.8519 39.7739 23.0873 39.9485C23.4593 39.9915 23.6593 40.2421 24.0364 40.2851L24.0642 40.3155L24.5602 40.5534L24.9247 40.6951C25.2385 40.7837 25.5219 40.9102 25.7446 41.1051C25.9775 41.1253 26.1597 41.2569 26.3824 41.3101L26.5925 41.4316L27.0683 41.4822L27.1214 41.4088L27.1088 41.3759" fill="#F9F9F9"/>
<path d="M16.6041 43.2145H16.6446L16.7053 43.3005C16.8977 43.3992 17.0571 43.5283 17.2899 43.5814L17.5253 43.7864L17.5152 43.9079L17.4949 43.9484L17.7151 44.08C17.9783 44.123 18.1504 44.2546 18.3832 44.3052L18.5452 44.447L18.6262 44.6216L18.6768 44.6621L18.7173 44.7608L18.7376 44.9228H18.7578C19.145 45.353 19.3601 45.6946 19.7372 46.1122L19.8283 46.2742H19.8511C20.1168 46.6386 20.6154 47.0334 20.7495 47.4536L20.8609 47.6257C21.0229 47.8534 21.2608 48.2153 21.3266 48.5038L21.3569 48.9012L21.3873 49.053H21.3974L21.448 49.1416L21.4885 49.4428H21.5063L21.5796 49.6149L21.6201 49.7034C21.6783 49.9262 21.9416 50.0097 22.0251 50.3842L22.0554 50.45L22.0934 50.6095L22.1162 50.6981L22.1465 51.1409L22.2453 51.4016L22.3085 51.5079L22.3971 51.6294L22.6223 51.8217L22.9564 52.1583L23.0045 52.257L23.045 52.6999H23.0247L22.9944 52.8492H22.9842L22.9741 53.0011H22.9564L22.964 53.0213H22.9564V53.0441H22.9741L22.9842 53.649L23.0247 54.1906L23.0754 54.4816L23.0855 54.6132H23.1057V54.6689L23.1184 54.8612L23.1361 54.9701H23.1462L23.1361 55.4686L23.2474 55.6179L23.2373 55.8027H23.2171L23.1968 55.9545H23.1766L23.1665 56.0406H23.1563L23.126 56.1798L23.0146 56.2911L22.9033 56.2355V56.0836H22.9235L22.9564 55.8786L22.9944 55.6736V55.6078H23.0146L23.0045 55.4787L22.7514 55.251L22.7312 55.1219H22.7514L22.7843 55.0004V54.8385H22.7944V54.7094H22.8122L22.7944 54.5145L22.7514 54.4183L22.721 54.3222L22.6907 54.2766L22.6603 54.1374H22.6401L22.6325 53.7806L22.6223 53.5629H22.6401V53.2061H22.6223V52.8189H22.6401V52.6341H22.6603L22.5996 52.2874H22.5793L22.5414 52.2115L22.3364 52.0065L22.1263 51.7914L21.9213 51.5307L21.9036 51.4345H21.8833L21.8732 51.3358L21.8504 51.0777L21.772 50.8701L21.7492 50.7082H21.7315L21.691 50.4703L21.6606 50.4045L21.6201 50.3184L21.4582 50.0173H21.448L21.3974 49.9413L21.3063 49.7667L21.276 49.7136L21.2051 49.6149H21.1848L21.1443 49.5086L21.1039 49.3694L21.0937 49.2681H21.0735L21.0431 48.9872L21.0229 48.8607L20.9824 48.438H20.9621L20.9216 48.3292L20.8204 48.1242L20.7597 47.9926H20.7495L20.6989 47.9167L20.6103 47.7573H20.6002L20.5471 47.6586C20.2409 47.1979 20.1624 46.9803 19.636 46.5652L19.4032 46.254H19.3956L19.312 46.1122C18.9679 45.5428 18.5882 45.5479 18.3934 44.943L18.1909 44.6317H18.1732L17.829 44.4368L17.3228 44.2091L17.3102 44.1129H17.2899L17.2292 43.9712C16.9761 43.9712 16.928 43.756 16.7661 43.6675L16.3206 43.4195L16.2321 43.1385L16.3611 43.0854L16.6041 43.2145Z" fill="#F9F9F9"/>
<path d="M10.9008 52.9583L10.8805 53.2949H10.8603L10.8502 53.3911H10.84L10.8097 53.7581L10.8299 53.8011H10.8198L10.8097 54.1909H10.7894L10.7489 54.3427V54.3756L10.6274 54.4186L10.4958 54.3655L10.4047 54.1909L10.3668 54.1377L10.3136 54.0289L10.263 53.8872L10.1618 53.748L10.1517 53.7151L9.9087 53.381L9.86061 53.3253L9.75685 53.1203L9.74673 53.0241H9.72648L9.6379 52.8723L9.48352 52.8293L9.40254 52.7635L9.29371 52.6116L8.9394 52.3105C8.69644 52.2118 8.56484 51.984 8.22065 52.0194L7.8056 52.1485V52.1789L7.2716 52.1586L7.26147 52.1257L7.2716 51.9637L7.68665 51.5867L7.89671 51.4221L8.21053 51.1843L8.49398 50.9033L8.81792 50.6427L9.071 50.4604C9.29371 50.3744 9.46581 50.2225 9.70876 50.1466L9.9087 50.1795L10.0226 50.2858L10.1314 50.4073L10.182 50.5161L10.2934 50.6427L10.3744 50.7414L10.4149 50.8375L10.4655 51.0349H10.4857L10.5287 51.1539L10.5768 51.2905L10.6173 51.412H10.6376L10.6679 51.5613L10.6983 51.6271L10.7186 51.7031L10.7894 52.1358H10.8097L10.84 52.6673H10.8502L10.9008 52.928L10.8805 52.9583H10.9008ZM11.1134 52.6977L11.0931 52.4395L11.0425 52.1586H11.0526L11.0121 51.8979H10.9919L10.9716 51.6929H10.9514L10.9311 51.5968L10.9008 51.3159L10.8603 51.2045H10.84L10.7793 50.9691L10.7489 50.8274H10.7287L10.6882 50.6427L10.6376 50.5465L10.5971 50.4503L10.5566 50.3617L10.5287 50.3314L10.1618 49.9948L9.80747 49.767C9.42278 49.6582 9.1697 49.9391 8.94952 50.1137L8.73693 50.2858L8.31176 50.4706L8.2004 50.5794L8.09158 50.6882L7.92961 50.8274L7.72461 50.9894C7.50443 51.0982 7.40067 51.3159 7.20073 51.4652L7.10963 51.5613C6.91222 51.7739 6.74013 52.0042 6.54272 52.2244V52.3206H6.56297L6.57309 52.3864L6.71482 52.5711C7.12987 52.6774 7.5348 52.5357 7.91695 52.4724L8.35225 52.3864C8.59521 52.3206 8.67619 52.5155 8.83564 52.6015L9.071 52.8394L9.3418 53.0241L9.35445 53.0672H9.3747C9.55185 53.3304 9.79734 53.5657 9.95172 53.8467L10.0504 54.0289H10.0707L10.0909 54.0947L10.1314 54.1681H10.1517L10.2048 54.3199H10.2225L10.3237 54.5477L10.3744 54.611L10.7894 54.8286L10.9919 54.7223L11.0121 54.6995L11.0197 54.6008L11.0627 54.125H11.083V53.9327H11.0627V53.5961H11.083V53.467H11.0931L11.1007 53.3354H11.1235L11.1539 53.1203H11.164L11.1741 53.0241H11.1842V52.8824L11.1134 52.6977" fill="#F9F9F9"/>
<path d="M18.0399 59.2845L17.969 59.3605L17.7058 59.3149C17.3642 59.0517 17.106 58.6949 16.8251 58.3658L16.7947 58.3329C16.6656 58.171 16.3721 58.0849 16.1291 58.1178L15.6128 58.009C15.3395 57.9432 15.1269 58.1052 14.8738 58.0394L14.7827 57.9128L14.7726 57.9002H14.7827L14.7928 57.718L14.8637 57.642L14.9877 57.5433L15.1168 57.4446L15.5116 57.1004V57.0777L15.623 56.9385L15.9267 56.612L16.119 56.4526C16.2911 56.2552 16.4936 56.1058 16.7947 56.04L17.1389 56.0071L17.4629 56.2906L17.5236 56.3665L17.5641 56.4298L17.6653 56.6879H17.6856L17.7159 56.7866L17.7463 56.8423L17.7969 56.9486L17.8273 57.1106L17.8475 57.2599C17.9159 57.5003 17.8349 57.8774 17.9159 58.1052L17.9488 58.2798H17.969L17.9969 58.7758H18.0095L18.0298 59.034L18.0601 59.1884L18.0399 59.2845ZM18.3739 59.1985L18.3309 58.7758L18.3132 58.5708H18.3233L18.293 58.4291L18.2828 58.3861L18.1917 57.9634H18.1816V57.9128H18.1917V57.5762L18.1689 57.1333H18.1512L18.131 56.9385L18.1006 56.8625L18.0601 56.7537H18.0399L18.0196 56.6221L17.9893 56.5715L17.9488 56.4829H17.9386L17.9083 56.4197L17.8172 56.321L17.6147 56.0502L17.1895 55.6731L16.8858 55.6073C16.5847 55.5415 16.4531 55.7692 16.2101 55.835V55.8452L15.8862 56.0831L15.38 56.5816L15.3294 56.6677V56.7107L15.2889 56.7866L15.2484 56.8625L14.9447 57.2295L14.6638 57.4573L14.5296 57.6522L14.4816 57.7483L14.3297 57.9331V58.0849L14.3879 58.171C14.5499 58.3557 14.9245 58.4519 15.2079 58.3557L15.5622 58.3658L16.1367 58.3861L16.1468 58.2697H16.1696L16.1797 58.3658H16.1595L16.1899 58.4519H16.2506L16.6226 58.581V58.6012L16.7947 58.7556L16.8377 58.8416L17.0098 59.0795L17.0478 59.1327L17.2098 59.3503H17.23L17.4021 59.5224L17.888 59.6616L18.3031 59.5857L18.3739 59.4465H18.3942V59.1985H18.3739V59.1985Z" fill="#F9F9F9"/>
<path d="M50.4789 34.3576L50.489 34.4437L50.5599 34.8334L50.5902 34.965L50.6105 35.1574H50.6307L50.6813 35.3624H50.7016L50.7218 35.58H50.7421L50.7623 35.7091H50.7826L50.7927 35.7951L50.8838 36.1317H50.8939L50.9041 36.2608L50.9446 36.5088H50.9648L50.985 36.6809H51.2736L51.266 36.5417H51.2457L51.2381 36.443L51.2078 36.2608H51.185L51.1571 36.1317H51.147L51.1065 36.0001L51.0762 35.8609L51.0559 35.623H51.0357L51.0028 35.494H50.9952L50.9547 35.3522L50.9446 35.213L50.9142 35.1574L50.8408 34.7803L50.8332 34.6487H50.813L50.7927 34.5095L50.7623 34.4336L50.7218 34.3273H50.7016L50.6813 34.1855H50.6611L50.6307 34.0312L50.5497 33.8388L50.5093 33.7097H50.489L50.4384 33.5478L50.3979 33.4592L50.3574 33.3731L50.3068 33.2542H50.2967L50.2461 33.0163H50.2258L50.1752 32.8012L50.1347 32.6797L50.0942 32.6038H50.074L50.0259 32.4545L49.9828 32.3583L49.912 32.1735L49.8715 32.0647H49.8538L49.8006 31.8369L49.7601 31.7408H49.7399L49.7019 31.5889H49.6817L49.6285 31.3839L49.588 31.308L49.5475 31.222H49.5298L49.4767 31.0701L49.4387 30.9309L49.3957 30.8221L49.3147 30.6146L49.2768 30.4981L49.216 30.3438H49.1958L49.1856 30.2375L49.1527 30.1185L49.1047 29.8908H49.092L49.0616 29.7313L49.0338 29.6756L49.0009 29.5795H48.9806L48.9528 29.415H48.9427L48.9199 29.3289L48.8921 29.1771L48.8516 29.0581H48.8288L48.7807 28.8961L48.7377 28.8L48.5757 28.5393L48.4568 28.4001L48.2847 28.1496L48.3049 27.9572L48.3328 27.8256H48.3454L48.3328 27.6864L48.2341 27.446L48.1936 27.3397H48.1733L48.1531 27.2739H48.1328L48.0822 27.1777H48.062L48.0417 27.1119H48.0215L47.9506 26.9829C47.5128 26.3932 47.2749 25.8415 46.9307 25.2417L46.8295 25.0341H46.8067L46.7156 24.8848C46.4979 24.6165 46.3005 24.3027 46.0095 24.1154L45.7463 23.9003L45.3818 24.0294L45.4426 24.204L45.8374 24.4318L46.2626 24.7861L46.4549 24.9835L46.7358 25.2644L46.6447 25.3809L46.4954 25.5327L46.4347 25.596L46.4043 25.6314L46.4347 25.7377L46.465 25.7731L46.8775 25.9224V25.9427H46.8978C47.1736 26.2742 47.4191 26.6336 47.6672 26.993L47.7076 27.0891H47.7279L47.8797 27.3397V27.4586H47.8595L47.8418 27.6004H47.819L47.7076 27.7623L47.6874 27.7826L47.6975 27.8357L47.8291 28.0736L48.0518 28.3039L48.062 28.3343L48.3555 28.6709L48.4062 28.7772H48.4264L48.5276 29.0277L48.5757 29.091L48.6289 29.253H48.6491L48.6795 29.4048L48.6997 29.5668L48.7377 29.7516L48.7908 29.8477L48.8516 29.9667H48.8617L48.8921 30.0983H48.9098L48.9427 30.3134H48.9326L48.9528 30.4754H48.9731L49.0009 30.6044L49.0338 30.6702L49.0616 30.8221L49.1047 30.9309L49.1629 31.017L49.216 31.146H49.2337L49.2768 31.3283C49.3704 31.5889 49.5121 31.8395 49.6209 32.1179L49.6488 32.2925H49.669L49.7019 32.4443L49.7601 32.6797H49.7829L49.8006 32.8316H49.8209L49.8715 33.0163H49.8917L49.9348 33.1352L49.9727 33.2213L50.0259 33.3428L50.0638 33.4491H50.0841L50.1878 33.6642L50.2461 33.8287L50.2865 33.9249H50.3068L50.3675 34.097L50.408 34.1957L50.4586 34.3576H50.4789Z" fill="#F9F9F9"/>
<path d="M19.7389 13.9624V14.0712H19.7187L19.7086 14.1674H19.6984L19.6681 14.2737L19.6073 14.3496L19.4352 14.547L19.0506 14.4154L18.9392 14.2737L18.881 14.2129L18.838 14.1041L18.8076 14.0383L18.7671 13.8865H18.7899V13.7776H18.8L18.8076 13.5398L18.881 13.4335L18.9797 13.2943L19.4049 13.193L19.6175 13.4006L19.6782 13.5752H19.6984L19.7491 13.8434L19.7592 13.9624H19.7389ZM19.992 13.7118L19.9616 13.4537L19.9212 13.3803L19.8402 13.2588L19.83 13.2386L19.7389 13.1525L19.577 12.9982C19.4049 12.8919 19.1619 13.0108 18.9392 12.9577L18.757 13.0969L18.6557 13.2285L18.557 13.4537H18.5469L18.514 13.5954H18.4938V13.8105H18.514L18.5469 14.1041H18.557L18.6077 14.3395L18.6456 14.4483H18.6659L18.7367 14.6103L18.9392 14.6457L19.5668 14.709L19.6782 14.6204L19.83 14.4053L19.8705 14.3395V14.3192L19.9819 14.1041H20.0021L19.992 13.7118Z" fill="#F9F9F9"/>
<path d="M36.0387 15.9846V15.9947L35.8767 15.8327L35.8059 15.7695L35.6338 15.5417L35.6236 15.5088L35.3098 15.2152L35.0188 14.9697L34.6645 14.6534L34.6037 14.5673H34.5835L34.5734 14.537L34.5126 14.4383L34.9277 14.6331C35.2997 15.0659 35.6388 15.2127 35.9678 15.5721L36.0184 15.7239H36.0387L36.0589 15.9644L36.0387 15.9846ZM35.7957 17.045L35.6743 17.0146L35.6945 16.959L35.8565 16.9033L35.8666 16.9235L35.7957 17.045V17.045ZM27.4036 15.8226L27.3403 15.6733L27.6364 15.562L27.6744 15.7695L27.4036 15.8226ZM25.4093 15.9745L25.3182 16.1035L24.8753 16.3971L24.2173 16.6553C23.8351 16.7185 23.5719 16.9134 23.2252 17.0248L22.7191 17.164L22.1547 17.4778L22.0231 17.5512C21.6612 17.6271 21.3347 17.7789 21.0639 17.9637L20.4363 18.2345C19.9326 18.5736 19.4493 18.9507 19.1 19.467L18.9709 19.6062L18.5458 19.467L18.4319 19.2848L18.3939 19.1962L18.2598 19.0342L18.2421 18.9684H18.2218L18.1206 18.8191L18.0295 18.647L17.9789 18.5154L17.8979 18.3661L17.8675 18.2345H17.8473L17.8068 18.1257L17.7966 18.0497H17.7764L17.746 17.8776L17.7156 17.703H17.6954L17.6853 17.5512L17.6752 17.045L17.6954 16.883L17.6752 16.678V16.2984H17.6853L17.7156 16.1693V15.7796H17.6954V15.5189H17.7156L17.6853 15.2912H17.6752L17.6448 15.1317H17.6245V14.9141L17.6954 14.8609L17.9358 14.7394L17.9789 14.6762L18.0396 14.5901V14.3953H18.07V14.2966H18.0902L18.0978 14.1017H18.1105L18.0978 13.8764L18.0295 13.5424L17.8877 13.3677L17.6752 13.2918V13.1197H17.6853L17.6954 13.0008H17.7156L17.7359 12.8591H17.7561L17.9991 12.4389L18.0396 12.3428L18.0902 12.277L18.1788 12.1125L18.2421 12.0467L18.2598 11.9404H18.2825L18.2522 11.7885L18.2218 11.7455L18.1611 11.6493L18.1105 11.5405H18.1206V11.4646H18.1307C18.1105 11.1837 18.1788 10.9356 18.1307 10.6648L18.1509 10.6547L18.1408 10.599H18.1509L18.1307 10.308H18.1105L18.0902 10.146H18.07L18.0295 9.95115L18.0193 9.86511H17.9991L17.9789 9.7006H17.9586L17.9485 9.46524C17.8877 9.22735 17.9282 8.8705 17.9181 8.57693L17.9358 8.22008H17.9485L17.9789 8.12391V7.75441H17.9991L18.0295 7.5393H18.0396V7.36467L18.0801 7.34442L18.1611 7.41022C18.2952 7.7367 18.4319 8.06064 18.6166 8.35928L18.6951 8.63007H18.7077L18.7558 8.8047H18.7761L18.8191 8.89074L18.8267 8.9363L18.8469 9.08562L18.857 9.09574H18.8469V9.40956H18.8267L18.7988 9.64999L18.8191 9.66011H18.7988L18.8191 9.67023H18.7988V9.74616H18.8191V9.77653H18.7988V9.99164H18.7887L18.7761 10.222H18.7558L18.7761 10.5687H18.7558V10.761H18.7381L18.728 11.1609H18.7178V11.4545H18.7381L18.7988 11.5177L19.0089 11.3229V11.2824H19.019V11.0419L19.0519 10.675V10.5788H19.062L19.0519 10.2878V10.1233H19.062L19.0696 9.91572H19.0899L19.1228 9.72338V9.49561H19.1329L19.143 9.19444H19.1531L19.143 9.18179H19.1531L19.181 8.61995H19.1911L19.224 8.42508V8.33903H19.2417L19.2721 8.18718H19.2822L19.3126 8.02521H19.3227L19.3531 7.77719H19.3759V7.43047H19.3531V7.27862H19.3759L19.3657 7.2685H19.3759L19.3936 7.11665H19.4138L19.4341 6.94203H19.4543L19.4847 6.80283H19.4948L19.5252 6.68641L19.5758 6.64086L19.758 6.86863L19.7884 6.97746L19.8491 7.07362L19.8896 7.14955L19.9402 7.31405H19.9504L20.001 7.41022L20.0313 7.51905L20.0617 7.59497L20.0921 7.78732H20.1022L20.1427 7.88602L20.1731 7.92651L20.2136 8.02521L20.2642 8.18718H20.2844L20.3047 8.30866H20.3249L20.373 8.4352L20.4768 8.60983L20.5173 8.72878L20.5274 8.82495H20.5476L20.5679 9.03247H20.5881L20.6084 9.34376C20.6261 9.67277 20.6438 10.0524 20.869 10.308L21.0538 10.5029C21.2132 10.6851 21.3752 10.8597 21.6789 10.9255L22.1041 11.2064L22.3976 11.4646L22.4685 11.6038H22.4888L22.5292 11.6797C22.7013 11.9935 22.7899 12.3023 22.9949 12.5781L23.0961 12.6844C23.6732 13.803 23.4403 13.2488 24.197 14.0156L24.3084 14.1801L24.5007 14.5572H24.5109L24.5615 14.7091L24.602 14.8609H24.6222L24.6728 15.0558H24.6931L24.7336 15.1418L24.8146 15.2912L24.8449 15.357L24.8551 15.3899L25.4093 15.6581L25.4624 15.8758L25.4093 15.9745ZM17.5436 14.5673L17.4929 14.4813L17.4626 14.1017L17.4828 13.9397H17.4929L17.5258 13.8106L17.6043 13.679L17.6954 13.5626L17.7359 13.6183L17.7865 13.679L17.6043 14.0258L17.6853 14.1371L17.7764 14.2206L17.827 14.2561L17.8169 14.3826H17.7966L17.7055 14.5142L17.5436 14.5673ZM2.71049 47.4754L3.09518 47.2173C3.36597 47.0528 3.66208 46.9111 3.93287 46.739L4.09485 46.8503L4.10497 46.9237L4.12522 47.1515L4.16824 47.4653H4.17583V47.7893H4.16824L4.14546 48.1891L4.16824 48.2878H4.17583L4.21632 48.4599L4.22645 48.5991H4.24669L4.25682 49.1205L4.29731 49.5532L4.3378 49.8848L4.34793 49.8999H4.3378L4.35805 49.9303H4.3378L4.34793 49.9506H4.3378L4.31756 50.1151L4.26694 50.1682L4.19608 50.1581L4.04423 49.9303L4.02398 49.8848L3.87213 49.6038L3.75319 49.4646L3.66208 49.2723H3.64942L3.55832 49.1205L3.51023 49.0749C3.42924 48.9053 3.18629 48.8902 2.96104 48.9053C2.68012 48.9357 2.46754 49.042 2.20433 49.1078L1.87026 49.2824L1.3641 49.5304L1.22238 49.4975L1.20213 49.4115H1.21226L1.24516 49.2166L1.29324 49.1078L1.33373 49.042V48.956L1.39701 48.8902L1.46534 48.6978H1.47799L1.50583 48.5991C2.10816 47.7538 1.89051 48.3663 2.42704 47.7133L2.71049 47.4754V47.4754ZM30.5165 14.5775L30.5494 14.5572L30.6886 14.4484H31.1036V14.5142L30.9745 14.623L30.5165 14.6888V14.5775ZM46.6048 24.3008C46.3543 24.0731 46.1189 23.825 45.9291 23.5644L45.795 23.1443L45.6431 23.0228L45.5849 22.9165L45.5343 22.7014L45.1395 22.1699C44.899 21.9978 44.775 21.7068 44.4941 21.5752L44.1601 21.3044L44.0892 21.1981L44.117 21.1449L44.1778 21.0437V20.8842L43.7551 20.5476L43.54 20.33L43.006 19.8896C42.7529 19.7682 42.51 19.629 42.2063 19.629C41.9329 19.51 41.609 19.4771 41.3559 19.305L40.8219 19.0545L40.3056 18.7229L40.093 18.5483L40.0627 18.3965L40.6296 18.5255L40.9738 18.5053L40.994 18.3661L40.9231 18.2674L40.4777 18.1484L40.0121 18.0826L39.6198 17.7789L39.7109 17.7131L40.3689 17.8346L40.6093 17.8776C40.832 17.9308 41.0548 18.0396 41.2977 18.0092L41.6697 17.8979L41.6191 17.8017C41.113 17.7587 40.6903 17.5208 40.2044 17.4575L39.7286 17.2702L39.9538 17.1513C40.2449 17.1209 40.498 17.2171 40.7612 17.2171C41.2471 17.2703 41.6697 17.4322 42.0949 17.617L42.6213 17.8675L42.7833 17.7789V17.6068L42.6517 17.498L42.2063 17.164C41.9431 17.2171 41.814 16.9488 41.5407 16.9995C41.1256 16.9488 40.7207 16.8172 40.2879 16.8603L39.7818 16.7843L39.7109 16.6882L39.7818 16.6224L40.1943 16.592C40.417 16.5566 40.6397 16.5566 40.8725 16.5363C41.2167 16.4832 41.6191 16.5034 41.9633 16.5692L42.024 16.5262V16.4174C41.5609 16.2124 41.0345 16.3313 40.5283 16.2858L39.921 16.3212L39.8602 16.2453L40.3056 15.9947C40.5688 15.8454 40.913 15.8226 41.156 15.6278C41.3989 15.5189 41.6799 15.5088 41.9431 15.4886L42.4594 15.1191L42.4998 15.0457L42.634 14.7951L42.7428 14.6129L42.7732 14.418H42.7833L42.7934 14.2763L42.8035 14.1472L42.8339 13.8005L42.844 13.4538L42.8744 13.4437L42.844 13.2159L42.8744 13.0868V12.6541L42.8542 12.6338C42.844 12.4162 42.8542 12.0922 42.844 11.8113L42.8946 11.6797L42.8744 11.4545L42.8946 11.0521L42.9149 10.7711L42.9351 10.761C42.9351 10.4902 42.9453 10.2422 42.9554 9.98152L42.9351 9.86511C42.8643 9.49055 42.9225 8.4681 42.844 8.03786L42.8035 7.79744C42.8238 7.55954 42.763 7.36467 42.7833 7.12677L42.7428 7.0306L42.763 6.7927L42.7428 6.78258L42.7226 6.33969L42.6922 6.25364L42.6517 6.17772V5.92717L42.634 5.91705L42.6011 5.6007L42.5302 5.45138L42.51 5.23373L42.4796 5.00849L42.4594 4.72757V4.17585L42.429 4.16573L42.4492 4.14295L42.429 4.13283L42.4492 3.98098H42.4391L42.429 3.62414L42.4087 3.61148L42.391 3.27995C42.2594 2.58651 42.2215 1.8956 41.9937 1.22493L41.9051 0.944012C41.7937 0.693462 41.7811 0.316372 41.5989 0.108845L41.3989 2.26129e-05L40.8599 0.121497L40.8017 0.240448L40.7207 0.326496L40.6397 0.465686L40.5587 0.561862L40.4271 0.792165L40.2449 1.15913L40.0728 1.5261L39.9716 1.69819L39.8602 1.90319L39.7919 1.99176L39.7286 2.08794C39.6299 2.34861 39.4148 2.5207 39.2756 2.74848L39.182 2.91298L38.982 3.21414C38.286 4.52257 37.6356 5.83606 36.9599 7.13943L36.889 7.2685L36.8485 7.4001C36.4411 9.19951 35.7628 10.3687 34.9277 11.996L34.9049 12.0922L34.8138 12.2415L34.8644 12.3833L34.9049 12.9907C35.0567 13.226 35.2896 13.4335 35.4617 13.6487L35.6743 13.9296C35.773 14.2814 36.1121 14.5775 36.0792 14.9697V15.0862L35.8261 14.9596L35.492 14.6989C35.2997 14.4712 35.0188 14.2864 34.7227 14.1675C34.6037 14.0612 34.5025 13.8208 34.2697 13.9296L34.1785 14.1017L34.0874 14.1675L33.9457 14.3522C34.2165 14.6331 34.6037 14.828 34.8948 15.0862L35.2896 15.4329L35.6743 15.8657L36.0083 16.0934L36.0387 16.1997L36.0691 16.3516L36.0387 16.4275L35.9577 16.4933L35.7552 16.3845L35.3503 16.0605L35.0795 15.8125C34.8568 15.6278 34.5835 15.5189 34.3506 15.3367L33.9837 15.4126L34.2266 15.648C34.4519 15.8454 34.7454 15.9416 34.9758 16.1263L35.0466 16.2655L34.9378 16.2453C34.4696 16.1997 34.0469 16.0302 33.5712 15.9745C33.3383 15.9846 33.1662 15.8226 32.9233 15.8555C32.6423 15.7037 32.2855 15.7897 32.0046 15.648L31.9616 15.5974L31.8224 15.5189C31.5085 15.5721 31.2049 15.562 30.8834 15.5847L30.6683 15.5417L30.3064 15.3772L30.3241 15.1317C30.3646 14.8381 30.7493 15.0204 30.9012 14.828C31.2175 14.8179 31.4276 14.5673 31.7414 14.5673L31.8224 14.4054L31.3466 14.3522L31.3668 14.3067L31.4579 14.2206L31.9616 14.0258L31.9135 13.9296L31.7009 13.9625L31.3263 14.1143C31.0555 14.1017 30.8202 14.1574 30.5494 14.1675L30.3646 14.0485L30.1647 14.3219C30.0964 14.4864 30.276 14.58 30.1242 14.9799L30.0635 15.443L29.7572 15.5189C29.4358 15.5847 29.1119 15.562 28.7981 15.6379L28.2742 15.7138L28.1805 15.3772L28.1704 15.1849L28.2033 14.9697L28.221 14.9596L28.2033 14.5041L28.221 14.4383L28.2033 14.3624L28.221 14.1675L28.2742 14.0713L28.2944 13.8992L28.3121 13.6942L28.3324 13.5424L28.302 13.4538L28.2514 13.226L28.1932 13.0868L28.1805 12.8059L27.6744 12.4693L27.353 12.2213C27.1277 11.7885 27.1632 11.5152 27.272 11.0521L27.3125 10.9559L27.3833 10.8167C27.5377 10.4067 27.6921 10.0068 27.7984 9.58419L27.8262 9.39944L27.9502 8.83507H27.9604L27.9705 8.72878L28.0084 8.51365C28.2058 7.86324 28.4741 7.25838 28.6892 6.62061L28.7474 6.47889L28.7677 6.37006C29.3371 4.76806 29.8003 4.32517 30.6304 3.01927L30.9923 2.57638L31.2352 2.34861L31.3466 2.4549C31.4807 2.92816 31.5592 3.41408 31.6503 3.8924L31.63 4.4998L31.6098 4.50992L31.6705 4.64152C31.7313 5.11478 31.7895 5.58551 31.8122 6.05877L31.8224 6.43586C31.8882 6.74462 31.9135 6.85092 31.9616 7.18245L32.0046 7.29887V7.61522L32.0248 7.62534C32.0046 7.90626 32.0653 8.12391 32.0451 8.40483L32.0653 8.55415L32.1134 8.69587V9.08562L32.0754 9.26784L32.0653 9.53863L32.0451 9.62468L32.0248 9.89548L32.0046 9.91572L31.9945 10.1764L32.0046 10.4472L32.0248 10.513L32.0653 10.6092L32.0856 10.9356L32.1134 11.0318L32.1564 11.128L32.1767 11.3127L32.2146 11.4216L32.2374 11.8872H32.2273L32.2045 12.1023L32.0248 12.5351C31.8325 12.7831 31.549 13.021 31.1745 13.0109L30.6506 13.2614L30.3874 13.5196L30.3646 13.6689L30.4152 13.7448L30.4254 13.9093L30.5392 13.9751C30.7594 13.9093 30.9923 13.8764 31.2175 13.8005L31.549 13.7347L31.9135 13.6689L31.3972 13.5069L31.1745 13.5196L31.1542 13.4538L31.6604 13.183C31.8831 13.0413 32.0957 12.892 32.2855 12.7097L32.3893 12.525C32.5816 12.3276 32.5183 11.8872 32.5107 11.6291V11.4443L32.4804 11.2925L32.4374 11.128V10.3181L32.4196 10.308L32.3665 10.1334V9.47536L32.3994 9.46524V9.22735L32.4196 8.82495L32.3994 8.706L32.3488 8.54403V7.83034L32.3665 7.82021L32.3488 7.72151C32.4019 7.12677 32.2374 6.5624 32.2146 5.98285L32.1944 5.82088C32.0628 5.43619 32.1919 5.31219 32.0451 5.00849L32.0248 4.74782L31.9742 4.59596C32.0046 4.3606 31.9438 4.16573 31.9616 3.91771L31.9337 3.72284C31.8553 2.73835 31.6933 2.7915 31.5693 2.08794L31.5187 1.94874L31.0834 1.93862L30.8733 2.17398L30.5392 2.49034L30.5063 2.53083L30.4886 2.6523L30.4254 2.7586L30.2862 2.94335L30.0103 3.38624L29.8003 3.64691C29.408 3.99616 29.3801 4.41881 28.9904 4.88954L28.9701 5.00849L28.9094 5.14768C28.7019 5.84112 28.3349 6.43333 28.1805 7.08375L28.0692 7.31405L28.0515 7.43047L27.9882 7.58232L27.9401 7.64559C27.7199 8.4428 27.4719 8.64273 27.3833 9.56141L27.353 9.78919L27.3125 9.86511C27.2821 10.5029 26.6443 11.3482 26.8974 11.9404L26.948 12.072L27.0088 12.1884L27.1404 12.4162C27.2922 12.6743 27.6263 12.6971 27.8591 12.8818L28.0692 13.0565L27.8895 13.4108L27.5833 13.2817C27.272 13.226 27.0594 13.0008 26.8063 12.8692L26.2293 12.6743L26.0091 12.773L26.2723 13.0008C26.5153 13.021 26.7456 13.1071 26.8974 13.2716L26.6848 13.4766L26.533 13.6689L27.0999 13.7043C27.3631 13.7803 27.6972 13.7246 27.9072 13.9397L27.8591 14.1017L27.2214 14.1574L26.9202 14.2662L26.8772 14.3421L27.2492 14.3219L27.8085 14.3421L27.8363 14.5673L27.7073 14.7091C27.4542 14.7648 27.191 14.7951 26.948 14.8609L26.8772 15.0001L27.0189 15.0457L27.606 14.871L27.8161 14.9242V15.1418L27.6162 15.357L27.1606 15.5847L26.5963 15.8125L26.1812 16.0504L25.9484 16.0706L25.9661 15.8327L25.9863 15.7037L25.956 15.562L25.918 15.443L25.6244 15.2912L25.1081 15.195L25.0879 15.0963L25.0474 14.947L24.8652 14.4484L24.8348 14.3953L24.7437 14.2206C24.6526 13.8992 24.3894 13.7145 24.1768 13.4867L23.7921 13.183C23.1392 12.3453 23.1215 11.9378 22.5799 11.171L22.0939 10.7281C21.7093 10.5889 21.3347 10.4042 21.0943 10.0903L21.074 9.95115L21.0538 9.80943L21.0032 9.67023L20.993 9.34376L20.9399 9.16154V9.12864L20.9601 8.90087L20.9222 8.79457L20.8792 8.706L20.8412 8.5339L20.788 8.4681L20.7298 8.25298L20.6792 8.18718L20.616 8.02521L20.5071 7.85311L20.454 7.68102L20.4464 7.5393L20.3857 7.43047L20.2136 6.97746L20.0313 6.66111L19.9807 6.51178L19.9402 6.37006L19.8896 6.27389L19.8086 6.04612L19.758 5.9626L19.5378 5.90693L19.3936 6.04612C19.1304 6.4308 19.0772 7.8025 18.9811 8.14416L18.8798 8.18718L18.7457 7.95181C18.5685 7.56207 18.442 7.26091 18.3028 6.86863L18.0801 6.57506L17.9181 6.61049L17.8675 6.74969L17.827 6.95721L17.7966 7.0964L17.7561 7.34442L17.7156 7.49627L17.6853 8.00243L17.665 8.01509V8.25298L17.6245 8.4681V8.98692L17.6448 8.99704L17.6245 9.06284V9.49561L17.6448 9.50827L17.665 9.84233C17.7359 10.0802 17.8017 10.3055 17.8675 10.5459L17.8371 10.7711C17.8675 11.0521 17.8068 11.2925 17.827 11.5734L17.8473 11.7455H17.8548V12.072C17.2626 13.1197 17.4449 12.8236 17.2905 13.7043L17.2829 14.0384L17.25 14.0612L17.2829 14.2307C17.2879 14.5749 17.3664 14.9849 17.4018 15.357L17.4449 15.5316C17.4449 15.7796 17.4221 15.9188 17.4322 16.1795L17.4018 16.1896L17.3816 16.3516C17.2879 16.8577 17.2525 17.374 17.4449 17.8675L17.5258 18.2244H17.5334L17.5942 18.4521L17.7764 18.8824L17.8877 19.1101L18.0598 19.424L17.7966 19.7378L17.5739 19.9858L17.412 19.9428L17.4018 19.9757L17.3411 19.9428L17.1285 20.125L17.0779 19.9428L17.1007 19.7175L16.9488 19.629L16.7666 19.8998L16.6527 20.1807L16.592 20.2996C16.1744 20.621 16.0327 21.2613 15.7037 21.7068L15.5923 21.8561L15.5518 21.9776C15.4202 22.3116 15.2405 22.6128 15.0887 22.9367L14.9267 23.1974L14.8558 23.3948L14.7824 23.491C14.2257 24.3059 13.884 25.2448 13.7423 26.247L13.6917 26.3989L13.6714 26.7127H13.6613L13.6486 26.8215L13.6309 26.9278L13.5904 27.0265L13.5702 27.3074L13.5196 27.4036L13.2057 27.8465L12.9223 28.011L12.5376 28.1831C12.0416 28.2691 11.5784 28.464 11.1229 28.626L10.9407 28.7652C10.6167 28.7778 10.4573 29.0258 10.2422 29.1878V29.2207L10.1814 29.3194L10.1637 29.4789L10.0903 29.6206L10.0726 29.9572V30.1622L10.0903 30.3039L10.1207 30.4633L10.1106 30.7569L10.0093 30.9746L9.81953 31.4377L9.74867 31.7288L9.72842 31.7743L9.56645 32.1109L9.43232 32.0856L9.09066 32.0957V32.0856L8.79708 31.9464L8.40228 32.0324L8.42253 32.1843L8.56425 32.2602L9.1185 32.4222L9.52343 32.6171L9.5867 32.736L9.63731 32.9309V33.2877L9.61454 33.3864L9.5462 33.4826C9.24251 33.5231 8.95906 33.6117 8.67561 33.6775C8.31117 33.7736 8.00747 33.9584 7.65316 34.0748L7.08626 34.3355L7.07867 34.4772L7.13941 34.6291L7.65316 34.4772L8.28333 34.176C8.68573 34.0647 9.05017 33.8394 9.48547 33.7939L9.5462 33.8926L9.57657 34.0242L9.5462 34.1862L9.50571 34.2823L9.48547 34.4013L9.43232 34.4873L9.39436 34.6493L9.37411 34.8138L9.33362 34.8872L9.28047 35.0492L8.87807 35.3301L8.72622 35.5477L9.26275 35.4921L9.48547 35.7097L9.50571 35.9476L9.5462 36.0564L9.5867 36.1855L9.63731 36.2614L9.65756 36.4867L9.69552 36.5854L9.72842 36.7372L9.76638 36.8334L9.80941 36.965L9.88027 37.0738L9.82965 37.2257C9.62719 37.3218 9.40448 37.418 9.16152 37.4408L8.78696 37.58L8.63511 37.7116L8.59462 37.8837L8.63511 38.1646L8.66548 38.2608L8.63511 38.2709L8.42253 38.5645L8.25043 38.934L8.11124 39.1794L7.82526 39.5717L7.50131 39.7438L7.0483 40.1741L6.89645 40.3816L6.86608 40.4676L6.82559 40.5663L6.76232 40.6726L6.37004 41.0092L6.22831 41.2699C6.12708 41.5812 5.7753 41.7001 5.62345 41.9709C5.55006 42.2088 5.24636 42.2291 5.14513 42.4366C4.88446 42.5986 4.72249 42.8365 4.48965 43.0187L4.11509 43.3123L3.75319 43.4844L3.9025 43.745L3.68232 44.0487C3.43937 44.198 3.26727 44.3828 3.11542 44.6004L2.94333 44.8156L2.96104 44.9117L3.04203 45.1825L3.00407 45.2483L2.6371 45.6684L2.52828 45.8203L2.35618 46.1012L2.32581 46.2531L2.37643 46.3391L2.35618 46.5239L2.14359 46.825L2.02211 47.0224L1.91076 47.1819L1.90063 47.3337L1.85002 47.5286L1.78928 47.7235L1.40713 48.1663L1.32614 48.2878L1.28312 48.3941L0.981952 48.8269L0.868065 49.0876L0.85035 49.1508L0.81998 49.3128L0.776958 49.4216L0.738995 49.5735L0.706093 49.8443L0.695971 50.2315L0.668133 50.2973L0.706093 50.439L0.453014 50.7528C0.288512 51.302 0.235364 51.1805 0.0809848 51.5627L0.118948 51.6285C0.291043 51.9347 0.167033 52.7395 0.0101225 53.0559L0 53.2609L0.101232 53.3267L0.192342 53.1647L0.232834 52.9698L0.253079 52.7952L0.303697 52.7091L0.344189 52.5927L0.384681 52.4181L0.364436 52.0284L0.404929 51.9094L0.453014 51.7677L0.516283 51.6386L0.647885 51.4665V51.3147L0.635231 51.1755L0.668133 51.0768L1.01991 50.644L1.24516 50.4061L1.30336 50.3074V50.2669L1.13127 49.9733L1.19201 49.9303C1.45521 49.8443 1.69817 49.6696 1.99174 49.6494C2.27519 49.5178 2.58901 49.2268 2.9332 49.4115L3.44696 49.8215L3.55832 49.986L3.60134 50.1024L3.6393 50.2112L4.01386 50.5681L4.37829 50.5149L4.56051 50.2214L4.60101 50.072L4.6415 49.9303L4.69212 49.8114V49.0876L4.65921 48.8902L4.6415 48.7408L4.62125 48.47H4.60101V47.0224L4.56051 46.8908L4.5099 46.7719L4.48965 46.6656L4.32768 46.372L3.72028 46.4909L3.61905 46.5795L3.09518 46.8604C2.88006 46.9667 2.72821 47.1945 2.48778 47.2072L2.57889 46.9465L2.65988 46.7288L2.70037 46.5669L2.71809 46.3619C2.94333 46.2227 3.1053 46.005 3.33814 45.8658L3.3761 45.7671L3.15592 45.7444L3.00407 45.7773L3.06228 45.6811L3.44696 45.2483C3.74053 45.1066 3.85189 44.8459 4.0746 44.6536L4.15559 44.3499L3.9025 44.3296V44.274C4.81359 43.4844 4.71742 42.9782 6.06634 42.1127L6.613 41.5609C6.83571 41.5508 6.86608 41.323 7.03817 41.2446C7.34946 40.8675 7.88852 40.7713 8.30105 40.4676C8.67561 40.2399 9.10078 40.1336 9.5462 40.0475L10.2143 39.8729L10.5459 39.8071L10.5661 40.0475L10.7205 40.0981C11.0318 40.2728 11.3962 40.4246 11.7885 40.3917C12.0137 40.3057 12.3756 40.2626 12.5477 40.4449C12.8008 40.5107 12.9324 40.7258 13.2057 40.7612L13.6309 40.9029L14.046 41.2243L14.3775 41.5154C14.5597 41.7229 14.8634 41.7963 15.0254 42.0367L15.4227 42.2949L15.7745 42.4897C16.0276 42.6087 16.1997 42.8263 16.473 42.9225L16.6856 42.877L16.554 42.5986L16.0478 42.3379L15.4227 41.9481C15.157 41.7963 14.8938 41.6141 14.6939 41.4192L14.2155 41.0092L13.6917 40.6296C13.4285 40.5866 13.1956 40.4347 12.9425 40.3588C12.7426 40.2955 12.5806 40.1538 12.3554 40.1108L11.8518 40.088L11.4063 39.8931C11.1735 39.9488 11.1634 39.6881 10.9609 39.6578C10.7078 39.635 10.4345 39.6021 10.1713 39.635C9.90052 39.6021 9.7183 39.8628 9.45256 39.7438C9.23238 39.7539 9.04004 39.8628 8.82745 39.8729C8.544 39.9817 8.28333 40.088 8.04037 40.2626L7.64557 40.4676L7.22039 40.5663L7.24064 40.4246C7.39249 40.1437 7.72655 40.0576 7.94673 39.8172L8.04037 39.8071L8.31117 39.4958L8.35166 39.3642L8.40228 39.2908L8.5845 39.0732L8.85782 38.6733L9.22226 38.3266L9.31337 38.1089L9.45256 37.9039L9.50571 37.7116C9.69552 37.537 9.99163 37.5471 10.2245 37.461L10.2725 37.375L10.1207 37.1371L10.2143 36.8435C9.99416 36.0235 9.58923 35.649 9.69552 34.6063L9.74867 34.5076L9.76638 34.3583L9.80941 34.2393L9.82965 34.1001L9.88027 33.9786V33.7433L9.92076 33.5585L9.96126 33.2219L10.0093 33.1156V32.8651L9.96126 32.736L9.92076 32.5842L9.93848 32.4526L9.9815 32.2476L9.97138 32.121H9.9815L9.99163 31.9894C10.2801 31.4858 10.1232 31.5516 10.3054 31.1897L10.5585 30.8759L10.4877 30.6582L10.4244 30.4001L10.3966 29.8357L10.6471 29.2334L11.0014 29.1372L11.4544 29.3928C11.7505 29.4485 11.8923 29.7294 12.0947 29.8711L12.1453 29.9572L12.2947 30.2052L12.3655 30.3874L12.3377 30.433V30.7569L12.4288 30.8556L12.6895 30.7696V30.3242L12.6287 30.1622L12.5806 30.0205L12.4895 29.8484C12.3276 29.6535 12.1555 29.4485 11.9328 29.3068L11.7885 29.1878L11.3861 28.9196L11.7809 28.669L11.9328 28.7247L11.9505 28.831C12.1858 29.0815 12.4085 28.6589 12.6895 28.7348L12.7603 28.8765V28.9955L12.9729 29.0056L13.6486 29.0486C13.9346 29.2106 13.4892 29.2637 13.5398 29.4586L14.1168 29.6434L14.0865 29.7395L14.0257 29.8357L14.046 29.9344L14.3876 30.0559L14.5015 29.9572L14.2358 29.699L14.2889 29.5042L14.3067 29.4915L14.2889 29.4181L13.9346 28.9297L13.8334 28.7905L13.4993 28.669L13.2564 28.4741L13.2969 28.173L13.8334 27.7402L13.9827 27.8161L14.1346 27.7604L14.1548 27.6972L14.1776 27.3277L14.2155 27.2644L14.2358 27.0822L14.2889 26.8848L14.3067 26.7253L14.3497 26.6595L14.3775 26.4849L14.4205 26.3786L14.3876 26.204L14.2358 26.3128L14.1978 26.409L14.1776 26.5608L14.1346 26.6798L14.046 27.0695L13.9954 27.2087L13.9827 27.1126L14.0257 26.9835V26.7L14.046 26.6899L14.0637 26.247L14.1067 26.118C14.2358 25.6422 14.2333 25.1006 14.5319 24.7007L14.7116 24.354L14.914 23.8681C15.3291 23.1544 15.7391 22.1243 16.1567 21.4562L16.3111 21.1652L16.4427 21.0336L16.4325 21.3044L16.554 21.4005L16.673 21.1652L16.8248 20.7982L16.8855 20.6767L16.9589 20.5704L17.1108 20.5173L17.2601 20.6868L17.4929 20.5805L17.8675 20.0946L17.908 20.0288L17.9485 19.9327L18.2421 19.6416L18.8191 19.7175L18.8469 19.7682L18.9001 19.9757L19.2139 19.834C19.3759 19.5859 19.6062 19.3911 19.7884 19.1633C20.1123 18.8824 20.3856 18.5812 20.7779 18.3661L20.8792 18.3863L21.2461 18.3307C21.4992 18.0953 21.8839 18.0092 22.1648 17.8245C22.3673 17.6397 22.6811 17.5739 22.9342 17.4449C23.1569 17.336 23.4201 17.336 23.6301 17.2298C24.0148 17.1311 24.3084 16.8932 24.6627 16.7742C24.9563 16.7185 25.1689 16.5135 25.4802 16.5262C25.7661 16.473 26.0293 16.3313 26.3204 16.2984C26.5962 16.2655 26.8468 16.1263 27.1201 16.1693L27.5023 16.0706C27.7452 15.9542 28.0211 15.9947 28.2944 15.9644C28.5146 15.8884 28.7803 15.8986 29.0106 15.8555C29.3143 15.7467 29.5877 15.9416 29.8914 15.9087C30.7594 15.8125 31.63 15.9644 32.4475 16.1162C32.7815 16.2124 33.1662 16.1693 33.5003 16.2756L33.7534 16.3111L34.0469 16.3516L34.1988 16.5566L34.1684 16.6679L34.4696 16.9488L34.1077 17.1311L34.0976 17.2399C34.3076 17.3816 34.6138 17.293 34.8644 17.3158L35.3199 17.3462L35.7755 17.3259L35.9273 17.541L36.1096 17.5739L36.1703 17.4778L36.1905 17.3158L36.231 17.0653C36.4183 16.4958 36.3272 15.7138 36.4335 15.195V14.7091C35.1377 11.9505 34.7328 13.4816 36.0994 10.6446L36.1703 10.4598C36.1855 9.91066 36.7296 9.35135 36.7347 8.90087L36.7676 8.69587L36.8384 8.5668L36.8688 8.37193H36.889L36.8966 8.28335C37.7546 5.68674 39.5413 3.0547 40.8422 0.693459L41.1256 0.316374L41.5179 0.359393L41.5609 0.908581L41.5812 0.918703L41.6318 1.10345L41.69 1.24518L41.733 1.354L41.7811 1.51597L41.8039 1.71084L41.8418 1.93862L41.8722 2.22966L41.9127 2.39163V2.66243L41.9329 2.68268L41.9633 3.08254H41.976L41.9937 3.43939C42.062 3.58364 42.1126 3.95314 42.1759 4.04678V4.34036L42.1961 4.35048V5.26916L42.2189 5.28941L42.2366 5.43113L42.2771 5.53996L42.31 5.6918L42.348 5.9626V6.34982L42.391 6.45864L42.4189 6.68641L42.4594 6.85851L42.4796 7.08375L42.5302 7.14955L42.4998 7.21282L42.5302 7.45325L42.5403 8.09101L42.5707 8.10113L42.591 8.69587L42.6213 8.9363H42.634L42.6112 8.96667C42.6011 9.47789 42.7352 10.0144 42.6922 10.3384L42.6821 10.7838L42.6517 10.7939V11.0419L42.6112 11.2166V11.5177L42.591 11.5278L42.5707 11.8872L42.591 12.2213V12.8388L42.5403 12.9805L42.5707 13.14V13.4234L42.5403 13.4437V13.8005L42.5302 14.0384L42.4796 14.1675L42.4594 14.3826L42.4189 14.537L42.348 14.7647C42.1557 15.0659 41.7608 15.1747 41.3787 15.1849C41.156 15.1747 41.0041 15.3468 40.8017 15.3772C40.5688 15.4886 40.2955 15.5088 40.0348 15.5721C39.7716 15.6733 39.5489 15.8758 39.4047 16.1035L39.3566 16.2225C39.4148 17.5917 38.7467 18.1763 38.7391 18.9052L38.8479 19.0039L39.1136 18.809L39.1617 18.7229L39.2047 18.5913L39.5666 18.6875C39.8602 18.7533 40.0829 18.9153 40.2955 19.0899C40.7207 19.3253 41.113 19.6416 41.5989 19.758L41.7811 19.834C42.0139 19.8669 42.1961 19.9985 42.429 20.039C42.7327 20.2465 43.1351 20.33 43.378 20.6134L43.3502 20.7526L43.006 20.8083L42.8339 20.9374L43.2793 21.1981L43.988 21.5979C44.3802 21.727 44.6561 22.018 44.8763 22.299L44.9269 22.4407L44.8459 22.4862C44.6434 22.4103 44.4207 22.3116 44.1879 22.3344L43.988 22.4736L44.2689 22.6254C44.6637 22.7115 45.0382 22.9064 45.2913 23.1645L45.6861 23.5542L46.048 23.9339L46.3214 24.235L46.5643 24.5058H46.6858L46.6048 24.3008" fill="#F9F9F9"/>
<path d="M19.4238 13.5783L19.4643 13.6441L19.4744 13.9351L19.4846 14.1072L19.4643 14.13L19.2112 14.2059L19.1201 14.1401L19.0695 14.0313L18.9784 13.7301L19.0518 13.6441V13.6087L19.1606 13.558L19.4238 13.5783Z" fill="#F9F9F9"/>
</svg>
